<?xml version="1.0" encoding="UTF-8"?>
<svg width="15px" height="15px" viewBox="0 0 15 15" version="1.1" xmlns="http://www.w3.org/2000/svg" xmlns:xlink="http://www.w3.org/1999/xlink">
    <!-- Generator: Sketch 64 (93537) - https://sketch.com -->
    <title>编组 28</title>
    <desc>Created with Sketch.</desc>
    <g id="前台" stroke="none" stroke-width="1" fill="none" fill-rule="evenodd">
        <g id="01.4_工作台_客户详情各状态" transform="translate(-778.000000, -213.000000)">
            <g id="编组-28" transform="translate(775.000000, 211.000000)">
                <rect id="矩形" x="0" y="0" width="20" height="20"></rect>
                <path d="M16.870142,5.207625 L15.830142,6.248625 L13.750142,4.166625 L14.790142,3.125625 C14.981642,2.933625 15.292142,2.933625 15.483642,3.125625 L16.870142,4.513625 C17.061642,4.705125 17.061642,5.016125 16.870142,5.207625 L16.870142,5.207625 Z M7.50964199,14.578125 L5.42964199,12.495625 L13.057142,4.860625 L15.136642,6.942625 L7.50964199,14.578125 Z M4.18164199,16.104625 L3.90414199,15.827125 C3.82764199,15.750625 4.19814199,13.728625 4.38964199,13.537125 L4.73614199,13.189625 L6.81664199,15.271625 L6.97814199,15.110125 L6.46964199,15.619125 C6.27814199,15.811125 4.25764199,16.181625 4.18164199,16.104625 L4.18164199,16.104625 Z M17.563642,3.819625 L16.176642,2.431625 C15.602642,1.856125 14.671142,1.856125 14.096642,2.431625 L3.69614199,12.842625 C3.12164199,13.417625 2.79664199,16.106625 3.14114199,16.452125 L3.55764199,16.868625 C3.90214199,17.213125 6.58864199,16.888125 7.16264199,16.312625 L17.563642,5.901625 C18.138142,5.326625 18.138142,4.394625 17.563642,3.819625 L17.563642,3.819625 Z" id="icon_edit" fill="#4187F2"></path>
            </g>
        </g>
    </g>
</svg>